<svg xmlns="http://www.w3.org/2000/svg" width="1311" height="356" fill="none"><path stroke="#363636" stroke-width="3" d="M399.664 4.733h-26.043V353.75h26.043V4.733ZM225.414 171.716H98.871v23.983h126.543v-23.983Z"/><path stroke="#363636" stroke-width="3" d="M2 4.733V353.75h26.043V28.483h268.614V4.733H2ZM1179.27 3.386H972.773v349.017h26.043V27.369h178.634c62.81 0 105.76 29.017 105.76 84.29v.914c0 51.853-43.86 85.65-108.72 85.65h-81.8v23.983h80.27c72.86 0 136.04-37.918 136.04-111.247v-.894c0-67.4-52.76-106.68-129.73-106.68ZM821.967 198.295 701.002 2h-24.896L460.473 353.543h26.956L687.981 30.336 792.6 198.218l29.367.078ZM861.794 262.856h-29.017l56.362 90.685h28.55l-55.895-90.685Z"/></svg>